<?xml version="1.0" standalone="no"?><!DOCTYPE svg PUBLIC "-//W3C//DTD SVG 1.1//EN" "http://www.w3.org/Graphics/SVG/1.1/DTD/svg11.dtd"><svg t="1578982317879" class="icon" viewBox="0 0 1047 1024" version="1.1" xmlns="http://www.w3.org/2000/svg" p-id="840" xmlns:xlink="http://www.w3.org/1999/xlink" width="204.4921875" height="200"><defs><style type="text/css"></style></defs><path d="M523.608097 0C234.373009 0 0 229.259919 0 512c0 244.460999 175.226991 448.846424 409.6 499.700945 31.369501 7.60054 68.957625 12.299055 114.008097 12.299055 45.188664 0 82.638596-4.560324 114.146289-12.299055C871.989204 960.846424 1047.216194 756.460999 1047.216194 512 1047.216194 229.259919 812.704993 0 523.608097 0z m19.899595 953.660459h-0.690958c-2.902024 0.138192-5.804049 0.276383-8.844264 0.276383h-1.381917l-8.982456 0.138192c-2.902024 0-6.080432 0-8.982456-0.138192h-1.381916l-8.844265-0.276383h-0.82915c-93.417544-3.869366-183.380297-36.206208-257.865587-92.726586v0.690958c-9.949798-7.60054-19.623212-15.477463-28.882051-23.768961 3.316599-124.925236 82.362213-235.616734 200.101485-278.870715 66.331984 37.173549 147.174089 37.173549 213.506072 0 117.60108 43.392173 196.646694 154.083671 199.963293 278.870715-9.258839 8.291498-18.932254 16.306613-29.020243 23.768961v-0.690958c-74.347099 56.520378-164.448043 88.85722-257.865587 92.726586zM362.062078 367.866127c0.138192-89.133603 72.274224-161.407827 161.407828-161.407827 89.133603 0.138192 161.407827 72.274224 161.546018 161.407827-3.178408 86.922537-74.48529 155.74197-161.546018 155.74197-86.922537 0-158.22942-68.819433-161.407828-155.74197z m520.42969 414.851282c-20.037787-113.869906-93.832119-212.953306-200.377868-264.222402 38.831849-40.490148 60.527935-94.523077 60.527935-150.62888-0.138192-120.917679-98.116059-218.895547-219.033738-219.033738-120.917679 0.138192-218.895547 98.116059-219.033738 219.033738 0 58.316869 23.078003 111.382456 60.527935 150.62888-106.545749 51.130904-180.340081 150.214305-200.377868 264.222402-59.560594-74.761673-95.075843-168.731984-95.075843-270.717409 0-244.184615 203.1417-442.075034 453.821323-442.075034 244.737382 0 444.2861 188.769771 453.406747 425.077463 0.276383 5.527665 0.414575 11.331714 0.414575 17.135763 0.138192 101.847233-35.377058 195.679352-94.79946 270.579217z" fill="#666666" opacity=".8" p-id="841"></path></svg>